<mxfile host="app.diagrams.net" modified="2023-09-06T20:36:23.662Z" agent="Mozilla/5.0 (X11; Linux x86_64) AppleWebKit/537.36 (KHTML, like Gecko) Chrome/115.0.0.0 Safari/537.36" etag="_vy7dd8KlioAEglqiQA6" version="21.7.2" type="device">
  <diagram name="Page-1" id="2YBvvXClWsGukQMizWep">
    <mxGraphModel dx="1434" dy="774" grid="1" gridSize="10" guides="1" tooltips="1" connect="1" arrows="1" fold="1" page="1" pageScale="1" pageWidth="850" pageHeight="1100" math="0" shadow="0">
      <root>
        <mxCell id="0" />
        <mxCell id="1" parent="0" />
        <mxCell id="AcZWakDEaMt0UMLY3WCi-1" value=":User" style="shape=umlLifeline;perimeter=lifelinePerimeter;whiteSpace=wrap;html=1;container=0;dropTarget=0;collapsible=0;recursiveResize=0;outlineConnect=0;portConstraint=eastwest;newEdgeStyle={&quot;edgeStyle&quot;:&quot;elbowEdgeStyle&quot;,&quot;elbow&quot;:&quot;vertical&quot;,&quot;curved&quot;:0,&quot;rounded&quot;:0};" vertex="1" parent="1">
          <mxGeometry x="40" y="40" width="100" height="600" as="geometry" />
        </mxCell>
        <mxCell id="AcZWakDEaMt0UMLY3WCi-4" value="" style="html=1;points=[];perimeter=orthogonalPerimeter;outlineConnect=0;targetShapes=umlLifeline;portConstraint=eastwest;newEdgeStyle={&quot;edgeStyle&quot;:&quot;elbowEdgeStyle&quot;,&quot;elbow&quot;:&quot;vertical&quot;,&quot;curved&quot;:0,&quot;rounded&quot;:0};" vertex="1" parent="AcZWakDEaMt0UMLY3WCi-1">
          <mxGeometry x="45" y="80" width="10" height="440" as="geometry" />
        </mxCell>
        <mxCell id="AcZWakDEaMt0UMLY3WCi-5" value=":Frontend" style="shape=umlLifeline;perimeter=lifelinePerimeter;whiteSpace=wrap;html=1;container=0;dropTarget=0;collapsible=0;recursiveResize=0;outlineConnect=0;portConstraint=eastwest;newEdgeStyle={&quot;edgeStyle&quot;:&quot;elbowEdgeStyle&quot;,&quot;elbow&quot;:&quot;vertical&quot;,&quot;curved&quot;:0,&quot;rounded&quot;:0};" vertex="1" parent="1">
          <mxGeometry x="220" y="40" width="100" height="600" as="geometry" />
        </mxCell>
        <mxCell id="AcZWakDEaMt0UMLY3WCi-7" value="" style="html=1;points=[];perimeter=orthogonalPerimeter;outlineConnect=0;targetShapes=umlLifeline;portConstraint=eastwest;newEdgeStyle={&quot;edgeStyle&quot;:&quot;elbowEdgeStyle&quot;,&quot;elbow&quot;:&quot;vertical&quot;,&quot;curved&quot;:0,&quot;rounded&quot;:0};" vertex="1" parent="AcZWakDEaMt0UMLY3WCi-5">
          <mxGeometry x="45" y="80" width="10" height="400" as="geometry" />
        </mxCell>
        <mxCell id="AcZWakDEaMt0UMLY3WCi-11" value=":Backend" style="shape=umlLifeline;perimeter=lifelinePerimeter;whiteSpace=wrap;html=1;container=0;dropTarget=0;collapsible=0;recursiveResize=0;outlineConnect=0;portConstraint=eastwest;newEdgeStyle={&quot;edgeStyle&quot;:&quot;elbowEdgeStyle&quot;,&quot;elbow&quot;:&quot;vertical&quot;,&quot;curved&quot;:0,&quot;rounded&quot;:0};" vertex="1" parent="1">
          <mxGeometry x="400" y="40" width="100" height="600" as="geometry" />
        </mxCell>
        <mxCell id="AcZWakDEaMt0UMLY3WCi-13" value="" style="html=1;points=[];perimeter=orthogonalPerimeter;outlineConnect=0;targetShapes=umlLifeline;portConstraint=eastwest;newEdgeStyle={&quot;edgeStyle&quot;:&quot;elbowEdgeStyle&quot;,&quot;elbow&quot;:&quot;vertical&quot;,&quot;curved&quot;:0,&quot;rounded&quot;:0};" vertex="1" parent="AcZWakDEaMt0UMLY3WCi-11">
          <mxGeometry x="45" y="130" width="10" height="190" as="geometry" />
        </mxCell>
        <mxCell id="AcZWakDEaMt0UMLY3WCi-14" value=":USDC" style="shape=umlLifeline;perimeter=lifelinePerimeter;whiteSpace=wrap;html=1;container=0;dropTarget=0;collapsible=0;recursiveResize=0;outlineConnect=0;portConstraint=eastwest;newEdgeStyle={&quot;edgeStyle&quot;:&quot;elbowEdgeStyle&quot;,&quot;elbow&quot;:&quot;vertical&quot;,&quot;curved&quot;:0,&quot;rounded&quot;:0};" vertex="1" parent="1">
          <mxGeometry x="570" y="40" width="100" height="600" as="geometry" />
        </mxCell>
        <mxCell id="AcZWakDEaMt0UMLY3WCi-15" value="" style="html=1;points=[];perimeter=orthogonalPerimeter;outlineConnect=0;targetShapes=umlLifeline;portConstraint=eastwest;newEdgeStyle={&quot;edgeStyle&quot;:&quot;elbowEdgeStyle&quot;,&quot;elbow&quot;:&quot;vertical&quot;,&quot;curved&quot;:0,&quot;rounded&quot;:0};" vertex="1" parent="AcZWakDEaMt0UMLY3WCi-14">
          <mxGeometry x="45" y="180" width="10" height="70" as="geometry" />
        </mxCell>
        <mxCell id="AcZWakDEaMt0UMLY3WCi-19" value=":Kratos-X SM" style="shape=umlLifeline;perimeter=lifelinePerimeter;whiteSpace=wrap;html=1;container=0;dropTarget=0;collapsible=0;recursiveResize=0;outlineConnect=0;portConstraint=eastwest;newEdgeStyle={&quot;edgeStyle&quot;:&quot;elbowEdgeStyle&quot;,&quot;elbow&quot;:&quot;vertical&quot;,&quot;curved&quot;:0,&quot;rounded&quot;:0};" vertex="1" parent="1">
          <mxGeometry x="710" y="40" width="100" height="600" as="geometry" />
        </mxCell>
        <mxCell id="AcZWakDEaMt0UMLY3WCi-20" value="" style="html=1;points=[];perimeter=orthogonalPerimeter;outlineConnect=0;targetShapes=umlLifeline;portConstraint=eastwest;newEdgeStyle={&quot;edgeStyle&quot;:&quot;elbowEdgeStyle&quot;,&quot;elbow&quot;:&quot;vertical&quot;,&quot;curved&quot;:0,&quot;rounded&quot;:0};" vertex="1" parent="AcZWakDEaMt0UMLY3WCi-19">
          <mxGeometry x="45" y="70" width="10" height="390" as="geometry" />
        </mxCell>
        <mxCell id="AcZWakDEaMt0UMLY3WCi-21" value="" style="endArrow=open;html=1;rounded=0;endFill=0;" edge="1" parent="1" target="AcZWakDEaMt0UMLY3WCi-7">
          <mxGeometry width="50" height="50" relative="1" as="geometry">
            <mxPoint x="95" y="150" as="sourcePoint" />
            <mxPoint x="250" y="150" as="targetPoint" />
          </mxGeometry>
        </mxCell>
        <mxCell id="AcZWakDEaMt0UMLY3WCi-22" value="Apply to vault" style="edgeLabel;html=1;align=center;verticalAlign=middle;resizable=0;points=[];" vertex="1" connectable="0" parent="AcZWakDEaMt0UMLY3WCi-21">
          <mxGeometry x="-0.0588" y="-3" relative="1" as="geometry">
            <mxPoint y="-18" as="offset" />
          </mxGeometry>
        </mxCell>
        <mxCell id="AcZWakDEaMt0UMLY3WCi-23" value="" style="endArrow=open;html=1;rounded=0;endFill=0;" edge="1" parent="1" target="AcZWakDEaMt0UMLY3WCi-13">
          <mxGeometry width="50" height="50" relative="1" as="geometry">
            <mxPoint x="275" y="180" as="sourcePoint" />
            <mxPoint x="440" y="180" as="targetPoint" />
          </mxGeometry>
        </mxCell>
        <mxCell id="AcZWakDEaMt0UMLY3WCi-24" value="deposit request(amount, time)" style="edgeLabel;html=1;align=center;verticalAlign=middle;resizable=0;points=[];" vertex="1" connectable="0" parent="AcZWakDEaMt0UMLY3WCi-23">
          <mxGeometry x="-0.2321" relative="1" as="geometry">
            <mxPoint x="18" y="-20" as="offset" />
          </mxGeometry>
        </mxCell>
        <mxCell id="AcZWakDEaMt0UMLY3WCi-25" value="" style="endArrow=open;html=1;rounded=0;endFill=0;" edge="1" parent="1">
          <mxGeometry width="50" height="50" relative="1" as="geometry">
            <mxPoint x="285" y="240" as="sourcePoint" />
            <mxPoint x="615" y="240" as="targetPoint" />
          </mxGeometry>
        </mxCell>
        <mxCell id="AcZWakDEaMt0UMLY3WCi-26" value="ERC20.approve(kratox.address, amount)" style="edgeLabel;html=1;align=center;verticalAlign=middle;resizable=0;points=[];" vertex="1" connectable="0" parent="AcZWakDEaMt0UMLY3WCi-25">
          <mxGeometry x="-0.0157" relative="1" as="geometry">
            <mxPoint x="9" y="-10" as="offset" />
          </mxGeometry>
        </mxCell>
        <mxCell id="AcZWakDEaMt0UMLY3WCi-27" value="" style="endArrow=none;html=1;rounded=0;endFill=0;startArrow=open;startFill=0;" edge="1" parent="1">
          <mxGeometry width="50" height="50" relative="1" as="geometry">
            <mxPoint x="455" y="280" as="sourcePoint" />
            <mxPoint x="610" y="280" as="targetPoint" />
          </mxGeometry>
        </mxCell>
        <mxCell id="AcZWakDEaMt0UMLY3WCi-28" value="event Approval()" style="edgeLabel;html=1;align=center;verticalAlign=middle;resizable=0;points=[];" vertex="1" connectable="0" parent="AcZWakDEaMt0UMLY3WCi-27">
          <mxGeometry x="0.0581" y="-1" relative="1" as="geometry">
            <mxPoint x="3" y="-11" as="offset" />
          </mxGeometry>
        </mxCell>
        <mxCell id="AcZWakDEaMt0UMLY3WCi-29" value="" style="endArrow=open;html=1;rounded=0;endFill=0;" edge="1" parent="1" target="AcZWakDEaMt0UMLY3WCi-20">
          <mxGeometry width="50" height="50" relative="1" as="geometry">
            <mxPoint x="460" y="340" as="sourcePoint" />
            <mxPoint x="750" y="340" as="targetPoint" />
          </mxGeometry>
        </mxCell>
        <mxCell id="AcZWakDEaMt0UMLY3WCi-30" value="kratosx.approveDeposit(time)" style="edgeLabel;html=1;align=center;verticalAlign=middle;resizable=0;points=[];" vertex="1" connectable="0" parent="AcZWakDEaMt0UMLY3WCi-29">
          <mxGeometry x="-0.2207" relative="1" as="geometry">
            <mxPoint x="-3" y="-10" as="offset" />
          </mxGeometry>
        </mxCell>
        <mxCell id="AcZWakDEaMt0UMLY3WCi-31" value="" style="endArrow=none;html=1;rounded=0;startArrow=open;startFill=0;" edge="1" parent="1" source="AcZWakDEaMt0UMLY3WCi-7">
          <mxGeometry width="50" height="50" relative="1" as="geometry">
            <mxPoint x="280" y="440" as="sourcePoint" />
            <mxPoint x="755" y="440" as="targetPoint" />
          </mxGeometry>
        </mxCell>
        <mxCell id="AcZWakDEaMt0UMLY3WCi-32" value="event depositApproved()" style="edgeLabel;html=1;align=center;verticalAlign=middle;resizable=0;points=[];" vertex="1" connectable="0" parent="AcZWakDEaMt0UMLY3WCi-31">
          <mxGeometry x="0.0189" y="2" relative="1" as="geometry">
            <mxPoint x="8" y="-8" as="offset" />
          </mxGeometry>
        </mxCell>
        <mxCell id="AcZWakDEaMt0UMLY3WCi-33" value="" style="endArrow=none;html=1;rounded=0;startArrow=open;startFill=0;" edge="1" parent="1" source="AcZWakDEaMt0UMLY3WCi-1">
          <mxGeometry width="50" height="50" relative="1" as="geometry">
            <mxPoint x="130" y="490" as="sourcePoint" />
            <mxPoint x="260" y="490" as="targetPoint" />
          </mxGeometry>
        </mxCell>
        <mxCell id="AcZWakDEaMt0UMLY3WCi-34" value="deposit ok popup" style="edgeLabel;html=1;align=center;verticalAlign=middle;resizable=0;points=[];" vertex="1" connectable="0" parent="AcZWakDEaMt0UMLY3WCi-33">
          <mxGeometry x="-0.2706" y="-2" relative="1" as="geometry">
            <mxPoint x="8" y="-22" as="offset" />
          </mxGeometry>
        </mxCell>
      </root>
    </mxGraphModel>
  </diagram>
</mxfile>
